<svg width="32" height="32" viewBox="0 0 32 32" fill="none" xmlns="http://www.w3.org/2000/svg">
<g clip-path="url(#clip0)">
<path d="M30.2336 5.65512e-08H1.76489C0.790039 0.000488338 -0.000244084 0.79126 5.65512e-08 1.76636V30.2351C0.000488338 31.21 0.79126 32.0002 1.76636 32H30.2336C31.209 32.0002 31.9998 31.2097 32 30.2344C32 30.2341 32 30.2339 32 30.2336V1.76489C31.9995 0.790039 31.2087 -0.000244084 30.2336 5.65512e-08Z" fill="#4267B2"/>
<path d="M17.4967 25V16.3453H20.4568L20.9002 12.9577H17.4967V10.8002C17.4967 9.82162 17.7723 9.15486 19.1958 9.15486H21V6.13318C20.6861 6.09203 19.6092 6 18.356 6C15.7396 6 13.949 7.57359 13.949 10.4646V12.9577H11V16.3453H13.949V25H17.4967Z" fill="white"/>
</g>
<defs>
<clipPath id="clip0">
<rect width="32" height="32" rx="16" fill="white"/>
</clipPath>
</defs>
</svg>
