<svg width="144" height="144" viewBox="0 0 144 144" fill="none" xmlns="http://www.w3.org/2000/svg">
<g opacity="0.2">
<path d="M26.744 54.535C27.0439 52.4168 27.2725 50.2866 27.6537 48.1838C29.8147 36.2735 38.2467 28.17 50.3031 27.7547C64.8193 27.2559 79.3795 27.2296 93.8936 27.7525C107.016 28.2249 116.519 37.9412 116.929 51.0677C117.365 65.0061 117.365 78.9785 116.929 92.9169C116.519 106.043 107.019 115.759 93.8947 116.232C79.3806 116.756 64.8171 116.769 50.3042 116.224C37.1799 115.731 28.1074 105.993 27.2296 92.8465C27.1538 91.7095 26.9099 90.5823 26.744 89.4507C26.744 77.8117 26.744 66.1728 26.744 54.535ZM72.0121 108.453C78.6544 108.453 85.3033 108.651 91.9369 108.406C102.338 108.021 108.735 101.814 108.978 91.4227C109.279 78.4753 109.279 65.5103 108.978 52.5619C108.735 42.1732 102.333 35.8209 91.9369 35.6001C78.7412 35.321 65.5312 35.3232 52.3356 35.6001C42.0183 35.8165 35.6023 42.0402 35.3221 52.3147C34.9662 65.4258 34.9662 78.5599 35.3221 91.671C35.6023 101.944 42.0183 108.024 52.3367 108.406C58.8867 108.65 65.4532 108.453 72.0121 108.453Z" fill="#222222"/>
<path d="M72 48.9364C59.2625 48.9364 48.9353 59.2625 48.9353 72C48.9353 84.7386 59.2625 95.0647 72 95.0647C84.7386 95.0647 95.0647 84.7386 95.0647 72C95.0647 59.2625 84.7386 48.9364 72 48.9364ZM72 87.1238C63.6471 87.1238 56.8762 80.3529 56.8762 72C56.8762 63.6471 63.6471 56.8762 72 56.8762C80.3529 56.8762 87.1238 63.6471 87.1238 72C87.1238 80.3529 80.3529 87.1238 72 87.1238Z" fill="#222222"/>
<path d="M101.898 47.8839C101.898 50.9139 99.4417 53.3705 96.4116 53.3705C93.3816 53.3705 90.924 50.9139 90.924 47.8839C90.924 44.8528 93.3816 42.3962 96.4116 42.3962C99.4417 42.3962 101.898 44.8528 101.898 47.8839Z" fill="#222222"/>
<rect x="1" y="1" width="142" height="142" rx="71" stroke="#222222" stroke-width="2"/>
</g>
</svg>
