<svg width="32" height="32" viewBox="0 0 32 32" fill="none" xmlns="http://www.w3.org/2000/svg">
<path d="M31.4521 5.72363C31.1609 2.99463 29.0056 0.838867 26.2764 0.547852C19.4321 -0.182617 12.5679 -0.182617 5.72388 0.547852C2.99463 0.839111 0.839111 2.99463 0.547852 5.72363C-0.182617 12.5676 -0.182617 19.4321 0.547852 26.2761C0.839111 29.0054 2.99463 31.1609 5.72363 31.4521C12.5676 32.1826 19.4321 32.1826 26.2764 31.4521C29.0056 31.1609 31.1609 29.0054 31.4521 26.2761C32.1826 19.4321 32.1826 12.5679 31.4521 5.72363Z" fill="url(#paint0_radial)"/>
<path d="M5.94312 12.1189C6.00977 11.6482 6.06055 11.1748 6.14526 10.7075C6.62549 8.06079 8.49927 6.26001 11.1785 6.16773C14.4043 6.05689 17.6399 6.05103 20.8652 6.16724C23.7812 6.27222 25.8931 8.4314 25.9841 11.3484C26.0811 14.4458 26.0811 17.5508 25.9841 20.6482C25.8931 23.5652 23.782 25.7241 20.8655 25.8294C17.6401 25.9458 14.4038 25.9487 11.1787 25.8276C8.26221 25.718 6.24609 23.554 6.05103 20.6326C6.03418 20.3799 5.97998 20.1294 5.94312 19.8779C5.94312 17.2915 5.94312 14.7051 5.94312 12.1189ZM16.0027 24.1006C17.4788 24.1006 18.9563 24.1448 20.4304 24.0903C22.7417 24.0047 24.1633 22.6253 24.2173 20.3162C24.2842 17.439 24.2842 14.5579 24.2173 11.6804C24.1633 9.37183 22.7407 7.96021 20.4304 7.91114C17.498 7.84912 14.5625 7.84961 11.6301 7.91114C9.3374 7.95923 7.91162 9.34229 7.84937 11.6255C7.77026 14.5391 7.77026 17.4578 7.84937 20.3713C7.91162 22.6543 9.3374 24.0054 11.6304 24.0903C13.0859 24.1445 14.5452 24.1006 16.0027 24.1006Z" fill="white"/>
<path d="M16 10.8748C13.1694 10.8748 10.8745 13.1694 10.8745 16C10.8745 18.8308 13.1694 21.1255 16 21.1255C18.8308 21.1255 21.1255 18.8308 21.1255 16C21.1255 13.1694 18.8308 10.8748 16 10.8748ZM16 19.3608C14.1438 19.3608 12.6392 17.8562 12.6392 16C12.6392 14.1438 14.1438 12.6392 16 12.6392C17.8562 12.6392 19.3608 14.1438 19.3608 16C19.3608 17.8562 17.8562 19.3608 16 19.3608Z" fill="white"/>
<path d="M22.644 10.6409C22.644 11.3142 22.0981 11.8601 21.4248 11.8601C20.7515 11.8601 20.2053 11.3142 20.2053 10.6409C20.2053 9.96729 20.7515 9.42139 21.4248 9.42139C22.0981 9.42139 22.644 9.96729 22.644 10.6409Z" fill="white"/>
<defs>
<radialGradient id="paint0_radial" cx="0" cy="0" r="1" gradientUnits="userSpaceOnUse" gradientTransform="translate(3.5 30) rotate(-43.977) scale(39.6043)">
<stop stop-color="#FAE100"/>
<stop offset="0.0544" stop-color="#FADC04"/>
<stop offset="0.1167" stop-color="#FBCE0E"/>
<stop offset="0.1829" stop-color="#FCB720"/>
<stop offset="0.2514" stop-color="#FE9838"/>
<stop offset="0.3054" stop-color="#FF7950"/>
<stop offset="0.4922" stop-color="#FF1C74"/>
<stop offset="1" stop-color="#6C1CD1"/>
</radialGradient>
</defs>
</svg>
