<svg width="24" height="24" viewBox="0 0 24 24" fill="none" xmlns="http://www.w3.org/2000/svg">
<path d="M4.45734 9.08917C4.50732 8.73614 4.54541 8.3811 4.60895 8.03064C4.96912 6.04559 6.37445 4.695 8.38385 4.62579C10.8032 4.54266 13.2299 4.53827 15.6489 4.62542C17.8359 4.70416 19.4198 6.32355 19.4881 8.51129C19.5608 10.8344 19.5608 13.1631 19.4881 15.4861C19.4198 17.6739 17.8365 19.2931 15.6491 19.372C13.2301 19.4594 10.8029 19.4616 8.38403 19.3707C6.19666 19.2885 4.68457 17.6655 4.53827 15.4744C4.52563 15.2849 4.48499 15.097 4.45734 14.9084C4.45734 12.9686 4.45734 11.0288 4.45734 9.08917ZM12.002 18.0754C13.1091 18.0754 14.2172 18.1086 15.3228 18.0678C17.0563 18.0035 18.1225 16.9689 18.163 15.2371C18.2131 13.0792 18.2131 10.9184 18.163 8.76031C18.1225 7.02887 17.0555 5.97015 15.3228 5.93335C13.1235 5.88684 10.9219 5.8872 8.7226 5.93335C7.00305 5.96942 5.93372 7.00671 5.88702 8.71912C5.8277 10.9043 5.8277 13.0933 5.88702 15.2785C5.93372 16.9907 7.00305 18.004 8.72278 18.0678C9.81445 18.1084 10.9089 18.0754 12.002 18.0754Z" fill="url(#paint0_linear)"/>
<path d="M12 8.15607C9.87708 8.15607 8.15588 9.87708 8.15588 12C8.15588 14.1231 9.87708 15.8441 12 15.8441C14.1231 15.8441 15.8441 14.1231 15.8441 12C15.8441 9.87708 14.1231 8.15607 12 8.15607ZM12 14.5206C10.6078 14.5206 9.47937 13.3922 9.47937 12C9.47937 10.6078 10.6078 9.47937 12 9.47937C13.3922 9.47937 14.5206 10.6078 14.5206 12C14.5206 13.3922 13.3922 14.5206 12 14.5206Z" fill="url(#paint1_linear)"/>
<path d="M16.983 7.98065C16.983 8.48566 16.5736 8.89508 16.0686 8.89508C15.5636 8.89508 15.154 8.48566 15.154 7.98065C15.154 7.47546 15.5636 7.06604 16.0686 7.06604C16.5736 7.06604 16.983 7.47546 16.983 7.98065Z" fill="url(#paint2_linear)"/>
<defs>
<linearGradient id="paint0_linear" x1="19.5426" y1="-17.7531" x2="4.45661" y2="-17.7516" gradientUnits="userSpaceOnUse">
<stop stop-color="#9B1EB4"/>
<stop offset="1" stop-color="#FF3A68"/>
</linearGradient>
<linearGradient id="paint1_linear" x1="15.8441" y1="-3.37608" x2="8.15551" y2="-3.37534" gradientUnits="userSpaceOnUse">
<stop stop-color="#9B1EB4"/>
<stop offset="1" stop-color="#FF3A68"/>
</linearGradient>
<linearGradient id="paint2_linear" x1="16.983" y1="4.32246" x2="15.1539" y2="4.32264" gradientUnits="userSpaceOnUse">
<stop stop-color="#9B1EB4"/>
<stop offset="1" stop-color="#FF3A68"/>
</linearGradient>
</defs>
</svg>
