<svg width="144" height="144" viewBox="0 0 144 144" fill="none" xmlns="http://www.w3.org/2000/svg">
<g opacity="0.2">
<path d="M109.067 47.7784C99.9929 47.7784 92.6103 40.4002 92.6103 31.3312C92.6103 29.9331 91.4765 28.8 90.0775 28.8H76.5128C75.1145 28.8 73.9801 29.9331 73.9801 31.3312V86.9119C73.9801 92.2434 69.6394 96.5808 64.3048 96.5808C58.9702 96.5808 54.6302 92.2434 54.6302 86.9119C54.6302 81.5798 58.9702 77.2424 64.3048 77.2424C65.7038 77.2424 66.8376 76.1093 66.8376 74.7112V61.1545C66.8376 59.757 65.7038 58.6232 64.3048 58.6232C48.6974 58.6232 36 71.3138 36 86.9119C36 102.51 48.6974 115.2 64.3048 115.2C79.9122 115.2 92.6103 102.51 92.6103 86.9119V62.3094C97.6507 64.9955 103.26 66.3976 109.067 66.3976C110.466 66.3976 111.6 65.2645 111.6 63.8664V50.3097C111.6 48.9122 110.466 47.7784 109.067 47.7784Z" fill="#222222"/>
<rect x="1" y="1" width="142" height="142" rx="71" stroke="#222222" stroke-width="2"/>
</g>
</svg>
