<svg width="24" height="24" viewBox="0 0 24 24" fill="none" xmlns="http://www.w3.org/2000/svg">
<path d="M18.598 8.07521C17.1576 8.07521 15.9858 6.87967 15.9858 5.41016C15.9858 5.18361 15.8058 5 15.5837 5H13.4306C13.2087 5 13.0286 5.18361 13.0286 5.41016V14.4163C13.0286 15.2802 12.3396 15.983 11.4928 15.983C10.6461 15.983 9.95718 15.2802 9.95718 14.4163C9.95718 13.5523 10.6461 12.8495 11.4928 12.8495C11.7149 12.8495 11.8949 12.6659 11.8949 12.4393V10.2426C11.8949 10.0162 11.7149 9.83247 11.4928 9.83247C9.01546 9.83247 7 11.8888 7 14.4163C7 16.9438 9.01546 19 11.4928 19C13.9702 19 15.9858 16.9438 15.9858 14.4163V10.4298C16.7858 10.865 17.6763 11.0922 18.598 11.0922C18.82 11.0922 19 10.9086 19 10.6821V8.48537C19 8.25893 18.82 8.07521 18.598 8.07521Z" fill="#222222"/>
</svg>
