<svg width="32" height="32" viewBox="0 0 32 32" fill="none" xmlns="http://www.w3.org/2000/svg">
<path d="M16 32C24.8366 32 32 24.8366 32 16C32 7.16344 24.8366 0 16 0C7.16344 0 0 7.16344 0 16C0 24.8366 7.16344 32 16 32Z" fill="#222222"/>
<path d="M24.2372 10.6174C22.2206 10.6174 20.5801 8.97783 20.5801 6.96249C20.5801 6.6518 20.3281 6.39999 20.0172 6.39999H17.0028C16.6921 6.39999 16.44 6.6518 16.44 6.96249V19.3138C16.44 20.4985 15.4754 21.4624 14.29 21.4624C13.1045 21.4624 12.1401 20.4985 12.1401 19.3138C12.1401 18.1289 13.1045 17.165 14.29 17.165C14.6008 17.165 14.8528 16.9132 14.8528 16.6025V13.5899C14.8528 13.2793 14.6008 13.0274 14.29 13.0274C10.8216 13.0274 8 15.8475 8 19.3138C8 22.78 10.8216 25.6 14.29 25.6C17.7583 25.6 20.5801 22.78 20.5801 19.3138V13.8465C21.7002 14.4435 22.9468 14.755 24.2372 14.755C24.548 14.755 24.8 14.5032 24.8 14.1925V11.1799C24.8 10.8694 24.548 10.6174 24.2372 10.6174Z" fill="white"/>
</svg>
