<svg width="32" height="32" viewBox="0 0 32 32" fill="none" xmlns="http://www.w3.org/2000/svg">
<g clip-path="url(#clip0)">
<path d="M30.2336 5.65512e-08H1.76489C0.790039 0.000488338 -0.000244084 0.79126 5.65512e-08 1.76636V30.2351C0.000488338 31.21 0.79126 32.0002 1.76636 32H30.2336C31.209 32.0002 31.9998 31.2097 32 30.2344C32 30.2341 32 30.2339 32 30.2336V1.76489C31.9995 0.790039 31.2087 -0.000244084 30.2336 5.65512e-08Z" fill="#03A9F4"/>
<path d="M25.6 9.89415C24.886 10.2154 24.1252 10.4283 23.332 10.5317C24.148 10.032 24.7708 9.24677 25.0636 8.30031C24.3028 8.76554 23.4628 9.09415 22.5676 9.27754C21.8452 8.48862 20.8156 8 19.6924 8C17.5132 8 15.7588 9.81415 15.7588 12.0382C15.7588 12.3582 15.7852 12.6658 15.85 12.9588C12.5776 12.7951 9.68202 11.1865 7.73682 8.736C7.39722 9.34031 7.19802 10.032 7.19802 10.7766C7.19802 12.1748 7.90002 13.4142 8.94642 14.1317C8.31402 14.1194 7.69362 13.9311 7.16802 13.6345C7.16802 13.6468 7.16802 13.6628 7.16802 13.6788C7.16802 15.6406 8.53242 17.2702 10.3216 17.6455C10.0012 17.7354 9.65202 17.7785 9.28962 17.7785C9.03762 17.7785 8.78322 17.7637 8.54442 17.7095C9.05442 19.3083 10.5016 20.4837 12.2224 20.5218C10.8832 21.5963 9.18282 22.2437 7.34202 22.2437C7.01922 22.2437 6.70962 22.2289 6.40002 22.1883C8.14362 23.3415 10.21 24 12.4384 24C19.6816 24 23.6416 17.8462 23.6416 12.512C23.6416 12.3335 23.6356 12.1612 23.6272 11.9902C24.4084 11.4215 25.0648 10.7114 25.6 9.89415Z" fill="white"/>
</g>
<defs>
<clipPath id="clip0">
<rect width="32" height="32" rx="16" fill="white"/>
</clipPath>
</defs>
</svg>
