<svg width="144" height="144" viewBox="0 0 144 144" fill="none" xmlns="http://www.w3.org/2000/svg">
<g opacity="0.2">
<path d="M115.2 44.5237C111.987 45.9692 108.564 46.9274 104.994 47.3926C108.666 45.144 111.469 41.6105 112.786 37.3514C109.363 39.4449 105.583 40.9237 101.554 41.7489C98.3035 38.1988 93.6703 36 88.6159 36C78.8095 36 70.9147 44.1637 70.9147 54.1717C70.9147 55.6117 71.0335 56.9963 71.3251 58.3145C56.5993 57.5778 43.5691 50.3391 34.8157 39.312C33.2875 42.0314 32.3911 45.144 32.3911 48.4948C32.3911 54.7865 35.5501 60.3637 40.2589 63.5926C37.4131 63.5372 34.6213 62.6898 32.2561 61.3551C32.2561 61.4105 32.2561 61.4825 32.2561 61.5545C32.2561 70.3828 38.3959 77.7157 46.4473 79.4049C45.0055 79.8092 43.4341 80.0031 41.8033 80.0031C40.6693 80.0031 39.5245 79.9366 38.4499 79.6929C40.7449 86.8874 47.2573 92.1766 55.0009 92.3483C48.9745 97.1834 41.3227 100.097 33.0391 100.097C31.5865 100.097 30.1933 100.03 28.8001 99.8474C36.6463 105.037 45.9451 108 55.9729 108C88.5673 108 106.387 80.3077 106.387 56.304C106.387 55.5009 106.36 54.7255 106.323 53.9557C109.838 51.3969 112.792 48.2012 115.2 44.5237Z" fill="#222222"/>
<rect x="1" y="1" width="142" height="142" rx="71" stroke="#222222" stroke-width="2"/>
</g>
</svg>
