<svg width="24" height="24" viewBox="0 0 24 24" fill="none" xmlns="http://www.w3.org/2000/svg">
<g clip-path="url(#clip0)">
<path d="M19.2 7.42062C18.6645 7.66154 18.0939 7.82123 17.499 7.89877C18.111 7.524 18.5781 6.93508 18.7977 6.22523C18.2271 6.57415 17.5971 6.82062 16.9257 6.95815C16.3839 6.36646 15.6117 6 14.7693 6C13.1349 6 11.8191 7.36062 11.8191 9.02862C11.8191 9.26862 11.8389 9.49938 11.8875 9.71908C9.4332 9.59631 7.2615 8.38985 5.8026 6.552C5.5479 7.00523 5.3985 7.524 5.3985 8.08246C5.3985 9.13108 5.925 10.0606 6.7098 10.5988C6.2355 10.5895 5.7702 10.4483 5.376 10.2258C5.376 10.2351 5.376 10.2471 5.376 10.2591C5.376 11.7305 6.3993 12.9526 7.7412 13.2342C7.5009 13.3015 7.239 13.3338 6.9672 13.3338C6.7782 13.3338 6.5874 13.3228 6.4083 13.2822C6.7908 14.4812 7.8762 15.3628 9.1668 15.3914C8.1624 16.1972 6.8871 16.6828 5.5065 16.6828C5.2644 16.6828 5.0322 16.6717 4.8 16.6412C6.1077 17.5062 7.6575 18 9.3288 18C14.7612 18 17.7312 13.3846 17.7312 9.384C17.7312 9.25015 17.7267 9.12092 17.7204 8.99262C18.3063 8.56615 18.7986 8.03354 19.2 7.42062Z" fill="#03A9F4"/>
</g>
<defs>
<clipPath id="clip0">
<rect width="24" height="24" rx="12" fill="white"/>
</clipPath>
</defs>
</svg>
