<svg width="144" height="144" viewBox="0 0 144 144" fill="none" xmlns="http://www.w3.org/2000/svg">
<g opacity="0.2">
<path fill-rule="evenodd" clip-rule="evenodd" d="M69.2806 103.578H74.9317C74.9317 103.578 76.6387 103.391 77.5102 102.452C78.3124 101.589 78.2867 99.9694 78.2867 99.9694C78.2867 99.9694 78.1763 92.3867 81.6956 91.27C85.1648 90.1701 89.6197 98.5986 94.3416 101.839C97.9122 104.292 100.625 103.754 100.625 103.754L113.251 103.578C113.251 103.578 119.856 103.172 116.724 97.9787C116.467 97.5539 114.9 94.1373 107.337 87.1167C99.4203 79.7689 100.48 80.9574 110.017 68.2472C115.824 60.5066 118.146 55.7808 117.421 53.7568C116.729 51.829 112.458 52.3386 112.458 52.3386L98.2421 52.4271C98.2421 52.4271 97.1883 52.2834 96.4067 52.7506C95.643 53.2088 95.1515 54.2766 95.1515 54.2766C95.1515 54.2766 92.9015 60.2666 89.9008 65.3607C83.5707 76.1097 81.0397 76.677 80.0052 76.0096C77.5987 74.454 78.1994 69.7604 78.1994 66.4259C78.1994 56.0093 79.7794 51.666 75.1229 50.5417C73.5776 50.1682 72.4405 49.9218 68.4887 49.882C63.4164 49.8294 59.1232 49.8974 56.6923 51.0885C55.0752 51.8804 53.8276 53.6452 54.5874 53.7465C55.5269 53.8723 57.6549 54.3203 58.7831 55.8566C60.2398 57.8382 60.1885 62.2893 60.1885 62.2893C60.1885 62.2893 61.0253 74.5516 58.2338 76.075C56.3176 77.1198 53.689 74.9867 48.0456 65.2349C45.154 60.2396 42.9708 54.7181 42.9708 54.7181C42.9708 54.7181 42.5498 53.6862 41.799 53.1343C40.8877 52.4656 39.6145 52.2526 39.6145 52.2526L26.106 52.3411C26.106 52.3411 24.0781 52.3976 23.3337 53.2794C22.6714 54.0636 23.2811 55.6859 23.2811 55.6859C23.2811 55.6859 33.8569 80.4286 45.8316 92.8975C56.8117 104.329 69.2806 103.578 69.2806 103.578Z" fill="#222222"/>
<rect x="1" y="1" width="142" height="142" rx="71" stroke="#222222" stroke-width="2"/>
</g>
</svg>
