<svg width="24" height="24" viewBox="0 0 24 24" fill="none" xmlns="http://www.w3.org/2000/svg">
<path fill-rule="evenodd" clip-rule="evenodd" d="M11.5467 17.2631H12.4886C12.4886 17.2631 12.7731 17.2319 12.9183 17.0753C13.052 16.9315 13.0477 16.6616 13.0477 16.6616C13.0477 16.6616 13.0293 15.3978 13.6159 15.2117C14.1941 15.0284 14.9366 16.4331 15.7235 16.9732C16.3186 17.382 16.7709 17.2924 16.7709 17.2924L18.8751 17.2631C18.8751 17.2631 19.9759 17.1953 19.4539 16.3298C19.4112 16.259 19.15 15.6896 17.8894 14.5195C16.57 13.2948 16.7467 13.4929 18.336 11.3745C19.304 10.0844 19.691 9.29682 19.5701 8.95949C19.4548 8.63819 18.7429 8.72311 18.7429 8.72311L16.3736 8.73787C16.3736 8.73787 16.198 8.71392 16.0677 8.79178C15.9405 8.86815 15.8585 9.04612 15.8585 9.04612C15.8585 9.04612 15.4835 10.0444 14.9834 10.8935C13.9284 12.685 13.5066 12.7795 13.3342 12.6683C12.9331 12.409 13.0332 11.6267 13.0332 11.071C13.0332 9.3349 13.2965 8.61103 12.5204 8.42364C12.2629 8.36139 12.0734 8.32032 11.4147 8.31369C10.5694 8.30492 9.85382 8.31626 9.44867 8.51477C9.17914 8.64675 8.97122 8.94088 9.09786 8.95778C9.25444 8.97874 9.60911 9.05339 9.79713 9.30945C10.0399 9.63973 10.0314 10.3816 10.0314 10.3816C10.0314 10.3816 10.1708 12.4253 9.70558 12.6792C9.38621 12.8533 8.94812 12.4978 8.00755 10.8725C7.52561 10.04 7.16175 9.11971 7.16175 9.11971C7.16175 9.11971 7.09158 8.94772 6.96644 8.85574C6.81457 8.74429 6.60237 8.70878 6.60237 8.70878L4.35095 8.72354C4.35095 8.72354 4.01297 8.73295 3.8889 8.87991C3.77852 9.01061 3.88013 9.281 3.88013 9.281C3.88013 9.281 5.64276 13.4048 7.63855 15.4829C9.46857 17.3882 11.5467 17.2631 11.5467 17.2631Z" fill="#4D76A1"/>
</svg>
