<svg width="32" height="32" viewBox="0 0 32 32" fill="none" xmlns="http://www.w3.org/2000/svg">
<g clip-path="url(#clip0)">
<path d="M30.2336 5.65512e-08H1.76489C0.790039 0.000488338 -0.000244084 0.79126 5.65512e-08 1.76636V30.2351C0.000488338 31.21 0.79126 32.0002 1.76636 32H30.2336C31.209 32.0002 31.9998 31.2097 32 30.2344C32 30.2341 32 30.2339 32 30.2336V1.76489C31.9995 0.790039 31.2087 -0.000244084 30.2336 5.65512e-08Z" fill="#FF0000"/>
<path d="M32.1077 7.75539C31.7204 6.28697 30.5855 5.12949 29.1464 4.73408C26.5171 4 15.9997 4 15.9997 4C15.9997 4 5.48255 4 2.85321 4.7061C1.44176 5.10125 0.279231 6.28723 -0.108108 7.75539C-0.799988 10.4375 -0.799988 16 -0.799988 16C-0.799988 16 -0.799988 21.5905 -0.108108 24.2446C0.279488 25.7128 1.41408 26.8705 2.85346 27.2659C5.51024 28 15.9999 28 15.9999 28C15.9999 28 26.5171 28 29.1464 27.2939C30.5858 26.8988 31.7204 25.741 32.108 24.2729C32.7999 21.5905 32.7999 16.0282 32.7999 16.0282C32.7999 16.0282 32.8276 10.4375 32.1077 7.75539Z" fill="#FF0000"/>
<path d="M12.8 20.8L22.4 16L12.8 11.2V20.8Z" fill="white"/>
</g>
<defs>
<clipPath id="clip0">
<rect width="32" height="32" rx="16" fill="white"/>
</clipPath>
</defs>
</svg>
