<svg width="144" height="144" viewBox="0 0 144 144" fill="none" xmlns="http://www.w3.org/2000/svg">
<g opacity="0.2">
<path d="M118.022 48.6403C116.915 44.4798 113.673 41.2002 109.561 40.0799C102.049 38 71.9991 38 71.9991 38C71.9991 38 41.9501 38 34.4377 40.0006C30.405 41.1202 27.0835 44.4805 25.9768 48.6403C24 56.2396 24 72 24 72C24 72 24 87.8396 25.9768 95.3597C27.0842 99.5195 30.3259 102.8 34.4384 103.92C42.0292 106 71.9998 106 71.9998 106C71.9998 106 102.049 106 109.561 103.999C113.674 102.88 116.915 99.5995 118.023 95.4397C120 87.8396 120 72.08 120 72.08C120 72.08 120.079 56.2396 118.022 48.6403Z" fill="#222222"/>
<path d="M63 86L90 72L63 58V86Z" fill="white"/>
<rect x="1" y="1" width="142" height="142" rx="71" stroke="#222222" stroke-width="2"/>
</g>
</svg>
