<?xml version="1.0" encoding="UTF-8" standalone="no"?>
<svg
   xmlns:dc="http://purl.org/dc/elements/1.1/"
   xmlns:cc="http://creativecommons.org/ns#"
   xmlns:rdf="http://www.w3.org/1999/02/22-rdf-syntax-ns#"
   xmlns:svg="http://www.w3.org/2000/svg"
   xmlns="http://www.w3.org/2000/svg"
   xmlns:sodipodi="http://sodipodi.sourceforge.net/DTD/sodipodi-0.dtd"
   xmlns:inkscape="http://www.inkscape.org/namespaces/inkscape"
   width="24"
   height="24"
   viewBox="0 0 24 24"
   fill="none"
   version="1.1"
   id="svg13"
   sodipodi:docname="youtube-mini.svg"
   inkscape:version="0.92.4 (5da689c313, 2019-01-14)">
  <metadata
     id="metadata17">
    <rdf:RDF>
      <cc:Work
         rdf:about="">
        <dc:format>image/svg+xml</dc:format>
        <dc:type
           rdf:resource="http://purl.org/dc/dcmitype/StillImage" />
      </cc:Work>
    </rdf:RDF>
  </metadata>
  <sodipodi:namedview
     pagecolor="#ffffff"
     bordercolor="#666666"
     borderopacity="1"
     objecttolerance="10"
     gridtolerance="10"
     guidetolerance="10"
     inkscape:pageopacity="0"
     inkscape:pageshadow="2"
     inkscape:window-width="1920"
     inkscape:window-height="1001"
     id="namedview15"
     showgrid="false"
     inkscape:zoom="13.906433"
     inkscape:cx="-0.40677966"
     inkscape:cy="13.923223"
     inkscape:window-x="-9"
     inkscape:window-y="-9"
     inkscape:window-maximized="1"
     inkscape:current-layer="g6" />
  <g
     clip-path="url(#clip0)"
     id="g6">
    <path
       style="fill:#ff0000;fill-opacity:1"
       d="M 12 6 C 12 6 6.3656112 6.0004656 4.9570312 6.3535156 C 4.2009013 6.5510956 3.5785937 7.1428731 3.3710938 7.8769531 C 3.0004438 9.2180131 3 12 3 12 C 3 12 3.0004438 14.795947 3.3710938 16.123047 C 3.5787338 16.857147 4.1859313 17.435113 4.9570312 17.632812 C 6.3803013 17.999813 12 18 12 18 C 12 18 17.634369 17.999484 19.042969 17.646484 C 19.814069 17.448884 20.421206 16.870819 20.628906 16.136719 C 20.999506 14.795519 21 12.013672 21 12.013672 C 21 12.013672 21.014606 9.2180131 20.628906 7.8769531 C 20.421406 7.1427431 19.813969 6.5648975 19.042969 6.3671875 C 17.634369 6.0001475 12 6 12 6 z M 10 9 L 15 12 L 10 15 L 10 9 z "
       id="path2" />
  </g>
  <defs
     id="defs11">
    <clipPath
       id="clip0">
      <rect
         width="24"
         height="24"
         rx="12"
         fill="white"
         id="rect8" />
    </clipPath>
  </defs>
</svg>
